<svg width="84" height="82" viewBox="0 0 84 82" fill="none" xmlns="http://www.w3.org/2000/svg">
<path fill-rule="evenodd" clip-rule="evenodd" d="M13.917 60.3911L9.35205 76.635L18.2507 73.6973L24.0291 81.3008L28.9407 64.1929L13.917 60.3911Z" fill="#2A2941"/>
<path fill-rule="evenodd" clip-rule="evenodd" d="M54.0197 44.2048L68.6967 51.9812L60.3759 56.5317L61.7049 66.1513L46.3345 57.9142L53.9619 44.2048H54.0197Z" fill="#2A2941"/>
<path fill-rule="evenodd" clip-rule="evenodd" d="M0.916728 49.1587C-0.816781 45.357 1.7257 41.0368 1.61013 37.235C1.49456 33.4333 -0.932349 29.3435 0.396674 26.3482C1.95683 22.7768 6.2906 21.8552 8.89087 19.2055C11.4911 16.5558 12.8202 11.4868 15.7671 10.2771C19.4653 8.77946 23.3946 11.314 27.1505 11.314C30.9064 11.314 35.1246 8.89466 38.3605 10.3347C41.5964 11.7172 42.9832 16.4406 45.6413 19.1479C48.2993 21.7976 52.7486 22.5464 54.3666 26.3482C55.9845 30.0923 53.3265 33.8365 53.3843 37.5806C53.4421 41.3248 56.0423 45.8754 54.7711 48.8707C53.4421 51.866 49.2816 53.3637 46.4502 55.8982C43.6188 58.4327 42.6943 63.3289 39.1117 64.9418C35.5291 66.5546 31.3687 63.9049 27.555 63.9049C23.799 63.9049 19.9853 66.3242 16.4605 64.9418C12.9357 63.5593 11.9534 58.8359 9.29535 56.1862C6.69509 53.5365 2.4191 52.7877 0.685592 49.3315L0.916728 49.1587Z" fill="#2A2941"/>
<path d="M27.5554 56.7046C37.9565 56.7046 46.4506 48.1794 46.4506 37.6958C46.4506 27.2122 38.0142 18.687 27.5554 18.687C17.0966 18.687 8.66016 27.2122 8.66016 37.6958C8.66016 48.1794 17.0966 56.7046 27.5554 56.7046Z" fill="#2A2941"/>
<path fill-rule="evenodd" clip-rule="evenodd" d="M23.6263 27.5578L29.6358 31.8204L36.9165 30.4956L34.6629 37.3502L38.0722 43.8017H30.6759L25.5331 49.1587L23.2218 42.304L16.5767 39.1359L22.5284 34.7581L23.5685 27.4426L23.6263 27.5578Z" fill="#2A2941"/>
<path fill-rule="evenodd" clip-rule="evenodd" d="M22.8751 52.1541L18.4258 67.6491L26.8622 64.8842L32.4094 72.1421L37.0899 55.8406L22.8751 52.1541Z" fill="#FF9518"/>
<path fill-rule="evenodd" clip-rule="evenodd" d="M41.8855 53.0755L20.2744 47.488L12.8203 73.5819L25.6483 69.3769L34.1425 80.5518L41.8855 53.0755ZM22.8747 52.1538L18.4253 67.6489L26.8617 64.884L32.409 72.1419L37.0894 55.8404L22.8747 52.1538Z" fill="#2A2941"/>
<path fill-rule="evenodd" clip-rule="evenodd" d="M61.0709 36.6589L75.0546 44.1472L67.1382 48.4674L68.4095 57.6262L53.7324 49.7923L61.0709 36.6589Z" fill="#FF9518"/>
<path fill-rule="evenodd" clip-rule="evenodd" d="M83.0855 44.0895L59.5098 31.5322L48.4731 51.2899L73.2623 64.4808L71.1821 50.541L83.0855 44.0895ZM61.0122 36.6588L74.9958 44.1471L67.0795 48.4673L68.3507 57.6261L53.7315 49.7922L61.0122 36.6588Z" fill="#2A2941"/>
<path fill-rule="evenodd" clip-rule="evenodd" d="M10.4514 41.4398C8.77566 37.8108 11.2026 33.6635 11.1448 30.0345C11.087 26.4056 8.71788 22.4886 9.93133 19.7813C11.4337 16.3828 15.5941 15.5187 18.0788 12.9266C20.5635 10.3345 21.8348 5.6111 24.9551 4.40145C28.0176 3.1918 32.2358 5.38069 35.8184 5.38069C39.401 5.38069 43.4458 3.0766 46.5084 4.40145C49.5709 5.72631 50.8999 10.2769 53.3846 12.8114C55.8693 15.3459 60.2609 16.2099 61.7055 19.6661C63.2078 23.0646 60.7231 26.8088 60.7809 30.3225C60.8387 33.8939 63.3812 38.2717 62.11 41.1518C60.8965 44.0319 56.8516 45.4144 54.1936 48.0065C51.5356 50.5986 50.5532 55.1492 47.3173 56.7044C44.0815 58.2597 39.921 55.6676 36.2807 55.6676C32.6981 55.6676 29.0577 57.9717 25.6485 56.7044C22.2392 55.3796 21.3147 50.8866 18.7722 48.3521C16.2298 45.8176 12.0115 44.7807 10.4514 41.4398Z" fill="#00ADB5"/>
<path fill-rule="evenodd" clip-rule="evenodd" d="M6.9842 43.0528V43.3408V43.0528C7.90874 45.0113 9.41112 46.6817 11.2602 47.8914C12.8781 48.7554 14.4961 49.7922 15.9407 50.8867C17.2119 52.5572 18.3676 54.2852 19.3499 56.0709C20.5056 57.8566 22.1235 59.2966 24.0882 60.1607C26.1106 60.8519 28.2486 61.0247 30.3288 60.5639C32.1779 59.9879 34.1425 59.6423 36.0494 59.4118C38.1296 59.6423 40.152 60.1031 42.1166 60.6791C44.3124 61.1975 46.6238 60.9671 48.6462 60.0455C50.6108 59.0662 52.2866 57.511 53.4422 55.6101C54.309 53.882 55.3491 52.2116 56.6203 50.7715C58.1805 49.5042 59.8562 48.4098 61.5897 47.373C63.2655 46.2209 64.5945 44.608 65.4612 42.7072C66.2124 40.6911 66.328 38.4446 65.8079 36.3709C65.1723 34.3548 64.71 32.3387 64.4789 30.265C64.71 28.3066 65.0568 26.3481 65.6346 24.5048C66.0969 22.3735 65.9235 20.127 65.0568 18.1109C64.1322 16.0949 62.6298 14.3668 60.7808 13.2147C59.0473 12.2931 57.3715 11.1987 55.8114 9.989C54.5401 8.43374 53.3845 6.70567 52.4021 4.97759C51.2465 3.19192 49.5707 1.69426 47.6061 0.830221C45.5837 0.0813897 43.4457 -0.149021 41.3077 0.311798C39.343 0.83022 37.3784 1.23344 35.356 1.46385C33.3335 1.23344 31.3689 0.830221 29.462 0.254197C27.324 -0.206622 25.0705 -0.0338155 22.9903 0.715016C21.0256 1.63665 19.4077 3.13432 18.3098 4.97759C17.3275 6.82087 16.1718 8.54894 14.9006 10.1618C13.3982 11.3715 11.838 12.4659 10.1045 13.3875C8.31323 14.5396 6.86863 16.2101 6.00188 18.1685C5.30847 20.127 5.25069 22.2583 5.77075 24.2744C6.34858 26.1753 6.75307 28.1914 7.04198 30.1498C6.81085 32.2235 6.46415 34.3548 5.94409 36.3709C5.53961 38.675 5.77075 41.0367 6.69528 43.2256L6.9842 43.0528ZM10.3934 41.4399C8.71771 37.811 11.1446 33.6636 11.0868 30.0346C11.0291 26.4057 8.65993 22.4887 9.87338 19.7814C11.3758 16.3829 15.5362 15.5188 18.0209 12.9267C20.5056 10.3346 21.7768 5.61122 24.8971 4.40157C27.9597 3.19192 32.1779 5.38081 35.7605 5.38081C39.343 5.38081 43.3879 3.07671 46.4504 4.40157C49.513 5.72642 50.842 10.277 53.3267 12.8115C55.8114 15.346 60.2029 16.2101 61.6475 19.6662C63.1499 23.0647 60.6652 26.8089 60.723 30.3226C60.7808 33.894 63.3232 38.2718 62.052 41.0943C60.8385 43.9168 56.7937 45.4145 54.1356 47.949C51.4776 50.4835 50.4953 55.0917 47.2594 56.6469C44.0235 58.2022 39.8631 55.6101 36.2227 55.6101C32.6401 55.6101 28.9998 57.9142 25.5905 56.6469C22.1813 55.3221 21.2568 50.8291 18.7143 48.2946C16.1718 45.7601 11.9536 44.7232 10.3934 41.3823V41.4399Z" fill="#2A2941"/>
<path d="M35.8766 48.6401C45.8154 48.6401 53.9051 40.5182 53.9051 30.4953C53.9051 20.4725 45.8154 12.3506 35.8766 12.3506C25.9379 12.3506 17.8481 20.4725 17.8481 30.4953C17.8481 40.5182 25.9379 48.6401 35.8766 48.6401Z" fill="white"/>
<path fill-rule="evenodd" clip-rule="evenodd" d="M32.1194 20.8184L37.84 24.8505L44.7162 23.5833L42.5782 30.438L45.9875 36.6014H38.9379L34.0263 41.728L31.7727 35.1038L25.4165 32.0508L31.1371 27.9035L32.1194 20.8184Z" fill="#FF9518"/>
</svg>
