<svg width="128" height="135" viewBox="0 0 128 135" fill="none" xmlns="http://www.w3.org/2000/svg">
<path fill-rule="evenodd" clip-rule="evenodd" d="M31.6654 48.9559C29.2084 44.395 27.8249 39.2428 27.8249 33.7888C27.8249 15.1277 44.021 0 64 0V30.4211C66.7294 26.001 70.5178 22.2089 75.2689 19.4599C91.4843 10.0775 112.773 16.3987 122.818 33.5787L96.2355 48.9594C101.463 49.0941 106.674 50.4619 111.457 53.1881C127.732 62.4667 132.873 83.9673 122.94 101.211L96.3346 86.0441C98.7916 90.605 100.175 95.7572 100.175 101.211C100.175 119.872 83.979 135 64 135V104.579C61.2706 108.999 57.4822 112.791 52.7311 115.54C36.5157 124.923 15.2274 118.601 5.18238 101.421L31.7645 86.0406C26.537 85.9059 21.3256 84.5381 16.5435 81.8119C0.267736 72.5333 -4.8734 51.0327 5.06041 33.7888L31.6654 48.9559ZM64.019 67.4225C64.0127 67.4115 64.0063 67.4006 64 67.3896L64 67.4225C64.0063 67.4225 64.0127 67.4225 64.019 67.4225ZM64 67.5775V67.6104L63.981 67.5775L64 67.5775Z" fill="#BFC4D5"/>
</svg>
