<svg width="172" height="184" viewBox="0 0 172 184" fill="none" xmlns="http://www.w3.org/2000/svg">
<path fill-rule="evenodd" clip-rule="evenodd" d="M60.04 8.51072C60.8663 15.1939 65.0915 32.0564 66.7731 33.9547C70.731 38.5961 72.2481 33.813 70.2254 23.183C68.4327 13.9287 67.7566 9.4125 67.2307 7.06306C66.1543 1.81926 59.455 3.91681 60.04 8.51072ZM95.137 1.37406C91.8618 3.7268 80.6892 45.6657 81.9733 50.8582C82.3329 52.312 84.6812 52.2272 86.1122 50.6611C87.5432 49.095 90.0786 41.7458 92.7911 31.102C95.8308 19.3303 99.1312 7.05339 100.02 4.40917C101.406 0.209469 98.932 -1.32763 95.137 1.37406ZM28.7692 26.2171C28.0014 27.1232 28.2343 27.3962 32.3608 32.0511C48.0394 49.5524 49.2013 51.7997 54.3307 49.8149C58.2004 48.3069 58.1362 48.0473 50.2706 39.4133C41.241 29.4141 36.5176 24.7968 35.1692 24.469C33.6266 24.024 29.706 25.1038 28.7692 26.2171ZM115.798 8.27632C113.095 10.2673 101.828 33.1098 102.406 35.4464C103.485 39.808 109.849 31.6773 120.133 12.8797C123.196 7.21833 120.789 4.61767 115.798 8.27632ZM11.7918 44.9068C7.29783 47.0099 16.4264 53.8439 21.9305 52.4828C26.344 51.3913 25.9862 49.2758 20.9211 46.3959C17.89 44.6109 15 43.3971 11.7918 44.9068ZM138.831 21.4246C136.308 23.7014 133.443 27.9362 128.019 33.851C121.592 40.84 114.865 48.6197 112.951 51.3521C109.644 56.0269 113.354 56.1012 117.751 51.3773C119.234 49.7983 123.761 45.1526 127.831 41.1154C137.508 31.4492 147.251 20.94 147.123 20.4208C146.674 18.3829 141.535 18.9926 138.831 21.4246ZM68.893 42.0812C68.1895 43.2469 69.5651 48.1412 70.7957 48.8838C75.1997 51.5415 78.1896 44.0248 73.9554 40.9396C73.0101 40.2366 69.5183 41.0449 68.893 42.0812ZM27.6002 57.362C26.5723 58.5529 27.2713 59.1514 37.7102 65.9369C49.9883 73.9205 50.9994 74.2215 54.7301 71.2602C56.4331 69.9023 56.1226 69.5383 50.8002 65.8405C37.1894 56.4783 30.4108 54.0221 27.6002 57.362ZM0.919066 76.0271C-0.642593 77.9561 0.731647 78.3877 13.7261 80.1331C26.7725 81.8658 34.0848 83.5838 44.6226 87.2041C50.5849 89.256 59.191 87.2931 55.6691 84.6376C47.7443 78.8834 4.15963 71.9748 0.919066 76.0271ZM147.891 50.0399C121.719 67.4219 119.756 69.0645 122.217 70.5497C123.383 71.2532 124.746 70.7507 130.229 67.5214C166.114 46.4149 166.944 46.6505 161.371 44.392C158.494 43.2301 157.442 43.6555 147.891 50.0399ZM101.166 63.854C98.0674 68.2569 97.9736 69.4372 100.581 69.5087C105.835 69.5869 111.059 61.077 111.02 61.1417C111.215 60.8179 111.333 60.4031 111.191 60.0525C111.101 59.689 110.803 59.3769 110.48 59.1815C107.409 57.6818 104.421 59.192 101.166 63.854ZM76.6929 76.5182L76.6298 80.9418C76.5554 89.7762 72.46 98.3927 67.8387 99.5356C64.4636 100.37 67.1949 102.725 71.1395 102.411C76.3688 101.944 82.9402 109.356 85.2024 117.612C86.745 123.181 92.4824 121.873 92.5712 117.553C92.8332 106.358 94.1297 101.574 99.0492 95.3988C102.081 91.6184 102.005 91.0863 98.3111 89.7407C92.375 87.5721 90.7313 86.0501 85.5111 77.8638C79.6449 68.6252 76.7661 73.2492 76.6929 76.5182ZM3.70282 98.646C2.92114 99.9413 3.26764 101.343 4.92305 103.358C6.96649 105.828 8.99007 105.989 24.6913 104.42C29.8558 103.915 36.3045 103.477 39.0029 103.471C44.5683 103.472 44.9714 103.097 43.7861 99.8636C42.6522 96.838 41.2145 95.9262 37.6345 95.7096C32.3421 95.4756 31.0318 95.5241 20.08 96.4693C14.3058 96.9605 8.62264 97.3742 7.36417 97.4099C4.35424 97.4931 4.45824 97.4674 3.70282 98.646ZM85.6126 88.9689C87.0363 90.2698 88.9927 91.2737 91.4297 91.9934C95.4095 93.1582 95.8109 93.4446 94.3816 94.3491C92.9523 95.2535 89.8144 99.7212 88.6006 102.611L87.5302 105.19L85.4985 103.213C83.4796 101.288 79.3983 99.2666 77.2192 99.1443C76.2075 99.0639 76.299 98.7658 78.1348 96.1629C81.7155 91.0347 81.2901 84.8585 82.7004 86.328C83.1147 86.6664 84.4089 87.8891 85.6126 88.9689ZM114.677 86.8504C112.663 88.2853 116.894 92.4734 120.203 92.2612C125.86 91.9643 149.616 85.9793 149.359 84.9408C148.986 83.435 145.373 81.0777 143.246 80.9426C140.12 80.7789 116.367 85.6612 114.677 86.8504ZM151.046 79.73C150.688 82.7388 155.77 84.1269 163.789 83.1354C171.913 82.1182 172.81 81.2902 168.835 78.3612C165.494 75.9916 151.377 77.0584 151.046 79.73ZM49.5635 108.298C47.4921 111.73 52.6052 116.141 57.0584 114.764C60.1354 113.838 60.5162 112.036 58.2795 109.007C56.431 106.434 50.9834 106.018 49.5635 108.298ZM29.2153 116.03C23.1496 118.907 14.591 122.622 9.78658 124.361C3.28094 126.796 1.29329 127.894 1.58863 129.088C2.10227 131.165 7.10647 132.462 10.0673 131.289C11.1711 130.851 15.0409 129.343 18.6768 128.003C33.4283 122.371 43.2365 117.025 41.7357 115.413C39.5365 112.981 35.1252 113.191 29.2153 116.03ZM128.55 105.294C122.011 110.713 132.212 114.307 139.412 109.11C141.66 107.507 138.683 105.048 135.921 104.574C131.369 103.771 130.292 103.872 128.55 105.294ZM112.275 113.231C109.507 114.963 109.332 117.816 112.001 119.029C112.999 119.499 118.505 122.38 124.27 125.417C148.056 138.049 154.756 140.855 156.927 139.161C160.385 136.432 156.617 133.673 131.533 120.921C117.916 113.985 113.704 112.327 112.275 113.231ZM65.0267 128.938C62.2054 131.344 40.236 169.506 40.6597 171.22C41.4815 174.543 48.26 171.875 50.7498 167.237C52.6398 163.739 58.5297 153.466 66.8294 139.347C74.191 126.782 73.3475 121.811 65.0267 128.938ZM148.075 110.274C146.593 111.412 145.99 114.095 147.156 114.578C162.812 120.625 169.856 120.811 168.443 115.1C167.595 111.893 151.091 107.985 148.075 110.274ZM34.1366 144.842C27.3238 150.715 27.1675 150.974 29.5136 151.771C33.9723 153.313 50.3638 140.499 46.1261 138.736C43.5472 137.666 40.8583 139.047 34.1366 144.842ZM92.681 130.474C90.742 132.882 91.8881 141.305 97.7812 139.958C100.079 139.444 101.202 136.632 100.109 132.66C98.9779 128.531 95.1148 127.393 92.681 130.474ZM77.1634 141.475C74.5548 146.969 69.2304 164.43 69.6542 166.143C70.7842 170.713 77.1079 158.184 81.1939 143.068C82.922 136.91 79.8764 135.735 77.1634 141.475ZM114.224 132.475C112.737 135.598 137.571 154.472 140.288 152.312C142.68 150.398 141.412 149.059 129.291 140.596C116.665 131.651 115.02 130.791 114.224 132.475ZM97.6276 149.363C95.7025 151.381 101.503 181.519 104.107 182.694C109.782 185.367 110.485 179.518 106.427 163.331C102.818 148.74 101.009 145.881 97.6276 149.363Z" fill="#1077FE"/>
</svg>
