<svg width="91" height="66" viewBox="0 0 91 66" fill="none" xmlns="http://www.w3.org/2000/svg">
<path fill-rule="evenodd" clip-rule="evenodd" d="M20.4551 30.1354L65.6193 10.4211L68.1536 39.158L42.5394 50.1204L20.4551 30.1354Z" fill="#2A2941"/>
<path fill-rule="evenodd" clip-rule="evenodd" d="M68.7418 5.18788L14.0288 29.0525L41.9057 54.1353L71.9549 41.1879L68.7418 5.09766V5.18788ZM20.455 30.045L65.6192 10.3307L68.1535 39.1578L42.5393 50.1202L20.455 30.045Z" fill="#2A2941"/>
<path fill-rule="evenodd" clip-rule="evenodd" d="M1.71924 31.2633L15.2957 25.3535L20.4999 30.2257L6.83302 36.1355L1.71924 31.2633Z" fill="#2A2941"/>
<path fill-rule="evenodd" clip-rule="evenodd" d="M40.232 52.6015L48.061 59.9098L73.1774 48.9474L71.7745 45.7444L48.6946 55.8045L42.4494 50.0752L40.0962 52.6015H40.232Z" fill="#2A2941"/>
<path d="M72.3619 58.6466C74.172 58.6466 75.6202 57.2932 75.6202 55.5789C75.6202 53.8646 74.172 52.5112 72.3619 52.5112C70.5517 52.5112 69.1035 53.8646 69.1035 55.5789C69.1035 57.2932 70.5517 58.6466 72.3619 58.6466Z" fill="#2A2941"/>
<path d="M54.9844 66.0001C56.7946 66.0001 58.2428 64.6467 58.2428 62.9324C58.2428 61.2632 56.7946 59.8647 54.9844 59.8647C53.1742 59.8647 51.7261 61.2181 51.7261 62.9324C51.7261 64.6467 53.1742 66.0001 54.9844 66.0001Z" fill="#2A2941"/>
<path d="M31.5884 34.1052C31.5884 34.1052 39.6437 35.1879 43.6261 33.3834C48.4231 31.3082 49.0567 25.8044 53.8085 23.7744C58.5149 21.7443 63.674 24.451 67.8374 22.9172C71.4125 21.6089 74.6709 16.6917 74.6709 16.6917" stroke="#2A2941" stroke-width="1.8827" stroke-miterlimit="1.32" stroke-linecap="square"/>
<path d="M39.9146 43.0828C42.3583 43.2182 44.7568 42.8573 47.0648 42.0452C51.8618 39.9701 52.4954 34.4663 57.2019 32.4362C62.2251 30.361 67.0674 33.1129 71.2761 31.5791C74.8512 30.3159 78.1095 25.3535 78.1095 25.3535" stroke="#2A2941" stroke-width="1.8827" stroke-miterlimit="1.32" stroke-linecap="square"/>
<path fill-rule="evenodd" clip-rule="evenodd" d="M22.7627 24.9474L67.9269 5.23315L70.4612 33.8347L44.847 44.7971L22.7627 24.9474Z" fill="#00ADB5"/>
<path fill-rule="evenodd" clip-rule="evenodd" d="M71.0946 0L16.3364 23.9098L44.1681 48.9474L74.2172 36.0451L71.0946 0ZM22.8079 24.8571L67.9721 5.14286L70.5063 33.7895L44.8922 44.797L22.8079 24.8571Z" fill="#2A2941"/>
<path fill-rule="evenodd" clip-rule="evenodd" d="M3.43848 26.3459L17.0149 20.4812L22.2192 25.3083L8.55226 31.2632L3.43848 26.3459Z" fill="#FF9518"/>
<path fill-rule="evenodd" clip-rule="evenodd" d="M17.4231 18.1353L0 25.7142L8.14585 33.4736L25.7499 25.8044L17.4231 18.1353ZM3.43936 26.436L17.0158 20.4811L22.2201 25.3082L8.55314 31.2631L3.43936 26.436Z" fill="#2A2941"/>
<path d="M74.6695 53.4586C76.4797 53.4586 77.9278 52.1052 77.9278 50.3909C77.9278 48.7217 76.4797 47.3232 74.6695 47.3232C72.8593 47.3232 71.4111 48.6766 71.4111 50.3909C71.4111 52.0601 72.8593 53.4586 74.6695 53.4586Z" fill="#FF9518"/>
<path fill-rule="evenodd" clip-rule="evenodd" d="M74.6697 45.3384C73.6741 45.3835 72.769 45.6993 71.9544 46.2857C71.1398 46.8722 70.5515 47.6391 70.1894 48.5414C69.8274 49.4436 69.7822 50.4361 70.0084 51.3835C70.2347 52.3309 70.7325 53.188 71.4113 53.8647C72.1354 54.5414 72.9952 54.9925 73.9456 55.173C74.8959 55.3534 75.8915 55.2181 76.7966 54.8572C77.7017 54.4963 78.4711 53.8196 79.0141 53.0076C79.5572 52.1955 79.8287 51.2482 79.8287 50.2557C79.8287 49.579 79.6477 48.9474 79.4214 48.3158C79.1499 47.6842 78.7878 47.1429 78.29 46.6918C77.7922 46.2406 77.2492 45.8797 76.6156 45.6091C76.0273 45.4286 75.3485 45.3384 74.6697 45.3384ZM74.6697 47.2782C75.258 47.3233 75.8463 47.5489 76.2988 47.9098C76.7514 48.2707 77.1134 48.7669 77.3397 49.3083C77.5207 49.8497 77.566 50.4812 77.4302 51.0677C77.2944 51.6542 76.9777 52.1504 76.5704 52.5564C76.1178 52.9624 75.5748 53.2331 74.9864 53.3233C74.3981 53.4136 73.8098 53.3685 73.2668 53.0978C72.7237 52.8722 72.2712 52.4662 71.9091 51.97C71.5923 51.4737 71.4113 50.8873 71.4113 50.3008C71.4566 49.4888 71.8639 48.7218 72.4522 48.1805C73.0405 47.6391 73.8551 47.3685 74.6697 47.3685V47.2782Z" fill="#2A2941"/>
<path d="M57.292 60.8121C59.1022 60.8121 60.5504 59.4587 60.5504 57.7444C60.5504 56.0301 59.1022 54.6768 57.292 54.6768C55.4818 54.6768 54.0337 56.0301 54.0337 57.7444C54.0337 59.4587 55.4818 60.8121 57.292 60.8121Z" fill="#FF9518"/>
<path fill-rule="evenodd" clip-rule="evenodd" d="M57.2917 52.782C56.2961 52.8271 55.391 53.1429 54.5764 53.7293C53.7619 54.3158 53.1736 55.0827 52.8115 55.985C52.4495 56.8872 52.4042 57.8797 52.6305 58.8271C52.8568 59.7745 53.3546 60.6316 54.0334 61.3083C54.7575 61.985 55.6173 62.4361 56.5677 62.6166C57.518 62.797 58.5136 62.6617 59.4187 62.3008C60.3238 61.9399 61.0931 61.2632 61.6362 60.4512C62.1792 59.6391 62.4508 58.6918 62.4508 57.6993C62.4508 57.0226 62.2698 56.391 62.0435 55.7594C61.7719 55.1278 61.4099 54.5865 60.9121 54.1354C60.4143 53.6842 59.8713 53.3233 59.2377 53.0527C58.6494 52.9173 57.9706 52.782 57.2917 52.782ZM57.2917 54.7218C57.88 54.7669 58.4684 54.9925 58.9209 55.3534C59.3735 55.7143 59.7355 56.2105 59.9618 56.7519C60.188 57.2933 60.188 57.9248 60.0523 58.5113C59.9165 59.0978 59.5997 59.594 59.1924 60C58.7399 60.406 58.1968 60.6767 57.6085 60.7669C57.0202 60.8572 56.4319 60.8121 55.8888 60.5414C55.3458 60.3158 54.8932 59.9098 54.5312 59.4136C54.2144 58.9173 54.0334 58.3309 54.0334 57.7444C54.0334 57.3384 54.1239 56.9324 54.3049 56.5263C54.4859 56.1654 54.7122 55.8045 55.029 55.5339C55.3458 55.2632 55.7078 55.0376 56.0699 54.9023C56.4771 54.7669 56.8844 54.7218 57.2917 54.7218Z" fill="#2A2941"/>
<path fill-rule="evenodd" clip-rule="evenodd" d="M42.6691 25.8646C42.6691 25.8646 50.996 26.9022 55.1594 25.0526C57.4674 23.8797 59.3681 22.0751 60.6805 19.9097C61.7666 18.015 63.3958 16.4812 65.2965 15.4887C67.4687 14.6767 69.8672 14.4962 72.1299 14.9022C74.4832 15.3533 76.9269 15.2631 79.2802 14.6315C83.0816 13.233 86.6114 7.95485 86.6114 7.95485L87.1092 7.14282L85.4801 6.10522L84.937 6.91726C84.937 6.91726 81.9502 11.609 78.6919 12.827C76.6554 13.3233 74.5284 13.3684 72.4467 12.9624C69.8219 12.5112 67.1067 12.7368 64.6176 13.6842C62.3549 14.812 60.4542 16.5714 59.1871 18.7819C58.0557 20.6767 56.4265 22.2556 54.4806 23.2932C50.6339 25.0075 42.9406 23.9248 42.9406 23.9248L41.9903 23.7894L41.7188 25.7293L42.6691 25.8646Z" fill="#2A2941"/>
<path fill-rule="evenodd" clip-rule="evenodd" d="M51.1776 34.8873C53.7571 35.0226 56.2913 34.6166 58.7351 33.7594C60.9978 32.5865 62.8985 30.782 64.2562 28.6166C65.3423 26.7218 66.9715 25.188 68.8722 24.1955C71.0444 23.3835 73.4429 23.203 75.7056 23.6091C78.0589 24.0602 80.5026 24.0151 82.8559 23.3835C86.6573 21.985 90.1419 16.7068 90.1419 16.7068L90.6849 15.8948L89.0558 14.8572L88.558 15.6692C88.558 15.6692 85.5259 20.3609 82.2223 21.579C80.1858 22.0752 78.0589 22.1203 75.9771 21.7143C73.3524 21.2632 70.6371 21.5339 68.1481 22.4361C65.8853 23.5639 63.9846 25.3233 62.7175 27.5339C61.5861 29.4737 59.957 31.0076 58.011 32.0903C55.8388 32.8121 53.5761 33.1279 51.2681 33.0376H50.2725V34.9775L51.1776 34.8873Z" fill="#2A2941"/>
</svg>
