<svg width="103" height="102" viewBox="0 0 103 102" fill="none" xmlns="http://www.w3.org/2000/svg">
<path d="M18.4234 69.5997C27.8926 86.0009 51.0625 50.7555 51.0625 50.7555C51.0625 50.7555 8.95416 53.1985 18.4234 69.5997Z" fill="#E55733"/>
<path d="M83.7022 31.9125C93.1714 48.3136 51.063 50.7567 51.063 50.7567C51.063 50.7567 74.233 15.5113 83.7022 31.9125Z" fill="#E55733"/>
<path d="M51.0626 88.4436C70.001 88.4436 51.0626 50.7552 51.0626 50.7552C51.0626 50.7552 32.1242 88.4436 51.0626 88.4436Z" fill="#E55733"/>
<path d="M51.0626 13.0676C70.001 13.0676 51.0626 50.7561 51.0626 50.7561C51.0626 50.7561 32.1241 13.0676 51.0626 13.0676Z" fill="#E55733"/>
<path d="M83.7026 69.5997C74.2334 86.0009 51.0634 50.7555 51.0634 50.7555C51.0634 50.7555 93.1718 53.1985 83.7026 69.5997Z" fill="#E55733"/>
<path d="M18.4243 31.9127C8.95505 48.3139 51.0634 50.7569 51.0634 50.7569C51.0634 50.7569 27.8935 15.5115 18.4243 31.9127Z" fill="#E55733"/>
</svg>
