<svg width="126" height="125" viewBox="0 0 126 125" fill="none" xmlns="http://www.w3.org/2000/svg">
<path d="M65.8883 0.711596C63.6766 -0.237199 62.3232 -0.237199 60.1115 0.711596C52.5055 3.97448 56.0867 31.7464 59.0997 48.9282C52.5266 32.7533 40.8071 7.28326 32.6102 8.49006C30.2267 8.84097 29.0768 9.549 27.7019 11.5122C23.3711 17.6963 37.9458 36.4416 49.4119 49.5559C35.7383 38.7222 16.2673 25.0356 10.2146 29.5794C8.29309 31.0219 7.62664 32.1905 7.36991 34.5674C6.53922 42.2583 29.6205 52.0822 46.1436 58.0972C28.777 55.2604 3.81185 52.5349 0.717289 59.6345C-0.239096 61.8287 -0.239096 63.1713 0.717289 65.3655C3.81185 72.4651 28.777 69.7396 46.1435 66.9028C29.6205 72.9178 6.53921 82.7417 7.3699 90.4326C7.62663 92.8095 8.29308 93.9781 10.2146 95.4206C16.2673 99.9643 35.7381 86.278 49.4116 75.4443C37.9455 88.5586 23.371 107.304 27.7018 113.488C29.0767 115.451 30.2266 116.159 32.6101 116.51C40.8071 117.717 52.5267 92.2463 59.0998 76.0714C56.0868 93.2532 52.5054 121.025 60.1115 124.288C62.3232 125.237 63.6766 125.237 65.8883 124.288C73.4947 121.025 69.9128 93.2513 66.8997 76.0697C73.4726 92.2444 85.1928 117.717 93.3901 116.51C95.7736 116.159 96.9235 115.451 98.2984 113.488C102.629 107.304 88.0547 88.5586 76.5886 75.4443C90.2621 86.278 109.733 99.9643 115.786 95.4206C117.707 93.9781 118.374 92.8095 118.63 90.4326C119.461 82.7417 96.3799 72.9179 79.8568 66.9029C97.2233 69.7396 122.188 72.465 125.283 65.3655C126.239 63.1713 126.239 61.8287 125.283 59.6345C122.188 52.535 97.2234 55.2604 79.8568 58.0971C96.3799 52.0821 119.461 42.2583 118.63 34.5674C118.374 32.1905 117.707 31.0219 115.786 29.5794C109.733 25.0356 90.2618 38.7222 76.5883 49.5559C88.0544 36.4416 102.629 17.6963 98.2983 11.5122C96.9234 9.549 95.7735 8.84097 93.39 8.49006C85.1928 7.28322 73.4727 32.7552 66.8998 48.9299C69.9128 31.7483 73.4946 3.97459 65.8883 0.711596Z" fill="#F4ADB3"/>
</svg>
