<svg width="66" height="65" viewBox="0 0 66 65" fill="none" xmlns="http://www.w3.org/2000/svg">
<path fill-rule="evenodd" clip-rule="evenodd" d="M29.5429 0.0735947C24.294 0.620536 19.7631 2.1863 15.2836 5.00122C14.1893 5.68902 13.9574 5.94215 14.5754 5.77477C15.3039 5.57739 20.9061 5.67408 22.5166 5.91189C25.7033 6.38222 28.1336 7.00307 30.6689 7.99446C35.3769 9.83524 38.9931 12.2076 42.6205 15.835C46.0319 19.2463 48.3049 22.5985 50.2658 27.11L50.5737 27.8181L50.6887 26.595C50.9216 24.116 50.6157 19.9165 49.9992 17.1317C48.8435 11.9113 46.2136 6.499 43.0234 2.77573C41.7618 1.30357 41.8669 1.37374 40.3174 0.968555C37.9697 0.354662 35.8063 0.068187 33.0836 0.0110208C31.7382 -0.0173048 30.1449 0.0108921 29.5429 0.0735947ZM45.7802 2.88607C49.4506 7.92249 51.5234 12.8768 52.5482 19.063C52.7371 20.2031 52.7818 21.1822 52.7777 24.0843C52.7721 28.0316 52.6225 29.3504 51.8204 32.5215C50.7989 36.5599 48.7159 41.0686 46.3954 44.2644C46.0492 44.7413 45.7658 45.1622 45.7658 45.1996C45.7658 45.3041 47.1857 44.5641 48.622 43.7113C55.6056 39.5645 60.8897 32.9362 63.4573 25.1024L63.7989 24.0604L63.3469 22.5689C60.8966 14.4853 55.4531 7.83777 47.9546 3.77189C47.3527 3.4455 46.5771 3.05744 46.2308 2.90963C45.6329 2.65431 45.6105 2.65316 45.7802 2.88607ZM15.7664 8.26987C12.944 8.47201 10.2468 8.95303 9.74335 9.34405C9.55073 9.49353 8.90954 10.1482 8.31857 10.7987C3.38026 16.2345 0.559285 22.8618 0.0602389 30.2001C-0.0610462 31.9838 0.0128579 35.2219 0.1747 35.2209C0.21706 35.2206 0.670398 34.3898 1.18206 33.3746C2.8619 30.0418 5.05069 27.0085 7.65408 24.4053C12.9358 19.124 19.2732 15.8971 26.9035 14.6039C28.3095 14.3657 29.1027 14.3185 31.8605 14.3097C33.6663 14.3039 35.6072 14.3435 36.1737 14.3979L37.2037 14.4966L36.8819 14.2385C35.5795 13.1939 31.7342 11.1839 29.3678 10.3107C25.114 8.7411 19.9677 7.96897 15.7664 8.26987ZM17.8258 20.1056C14.7794 21.7006 11.8864 23.8965 9.30906 26.5703C5.77235 30.2392 3.10653 34.6879 1.48102 39.6339L1.19455 40.5057L1.59433 41.8611C3.82793 49.4339 8.88482 55.9838 15.6361 60.0487C17.0832 60.92 19.0921 61.9381 19.1836 61.8466C19.2141 61.8161 18.9861 61.4435 18.6771 61.0186C15.6007 56.7909 13.507 51.7074 12.533 46.101C12.1905 44.1297 12.0581 39.4368 12.2816 37.1991C12.8628 31.383 15.2752 24.9813 18.6229 20.3711C18.9747 19.8867 19.2422 19.4702 19.2175 19.4455C19.1928 19.4208 18.5665 19.7178 17.8258 20.1056ZM63.9843 31.0718C58.562 42.3499 47.1998 49.8779 34.619 50.5275C32.7768 50.6227 29.5509 50.5315 28.3198 50.3496L27.8048 50.2735L28.114 50.5413C28.7362 51.08 30.8139 52.2848 32.7001 53.2006C39.1004 56.3083 46.2635 57.2811 53.3622 56.007L55.1004 55.695L56.1091 54.6319C61.4103 49.0452 64.4357 42.1911 64.9429 34.6198C65.0644 32.8058 64.9955 29.5924 64.8333 29.5058C64.7912 29.4834 64.4092 30.1881 63.9843 31.0718ZM14.6947 37.8656C14.5412 38.7953 14.6045 42.729 14.8 44.3997C15.6017 51.2538 18.2843 57.3549 22.8478 62.7036C23.7974 63.8165 23.8626 63.8462 26.5173 64.3826C28.9804 64.8804 30.214 64.9999 32.8905 65C38.1842 65.0004 42.9963 63.8187 47.6249 61.382C48.8801 60.7212 51.3443 59.1685 51.2644 59.0887C51.2382 59.0626 50.3263 59.1008 49.2381 59.1738C46.9333 59.3286 44.0106 59.1786 41.5294 58.778C29.6252 56.8563 19.5132 48.8388 14.9097 37.6725C14.7844 37.3686 14.7755 37.3766 14.6947 37.8656Z" fill="#00ADB5"/>
<path d="M44.9653 32.7932C44.9653 39.5826 39.4886 45.0864 32.7327 45.0864C25.9767 45.0864 20.5 39.5826 20.5 32.7932C20.5 26.0039 25.9767 20.5 32.7327 20.5C39.4886 20.5 44.9653 26.0039 44.9653 32.7932Z" fill="#242A33"/>
<path fill-rule="evenodd" clip-rule="evenodd" d="M32.7327 21C26.2552 21 21 26.2777 21 32.7932C21 39.3088 26.2552 44.5864 32.7327 44.5864C39.2101 44.5864 44.4653 39.3088 44.4653 32.7932C44.4653 26.2777 39.2101 21 32.7327 21ZM20 32.7932C20 25.73 25.6983 20 32.7327 20C39.767 20 45.4653 25.73 45.4653 32.7932C45.4653 39.8564 39.767 45.5864 32.7327 45.5864C25.6983 45.5864 20 39.8564 20 32.7932Z" fill="#919498"/>
<path d="M40.9683 32.7931C40.9683 37.3751 37.3081 41.0895 32.793 41.0895C28.2779 41.0895 24.6177 37.3751 24.6177 32.7931C24.6177 28.2112 28.2779 24.4967 32.793 24.4967C37.3081 24.4967 40.9683 28.2112 40.9683 32.7931Z" fill="#242A33"/>
<path fill-rule="evenodd" clip-rule="evenodd" d="M32.793 25.9967C29.127 25.9967 26.1177 29.0187 26.1177 32.7931C26.1177 36.5676 29.127 39.5895 32.793 39.5895C36.4589 39.5895 39.4683 36.5676 39.4683 32.7931C39.4683 29.0187 36.4589 25.9967 32.793 25.9967ZM23.1177 32.7931C23.1177 27.4036 27.4287 22.9967 32.793 22.9967C38.1572 22.9967 42.4683 27.4036 42.4683 32.7931C42.4683 38.1827 38.1572 42.5895 32.793 42.5895C27.4287 42.5895 23.1177 38.1827 23.1177 32.7931Z" fill="#919498"/>
<path d="M36.8505 32.7933C36.8505 35.101 35.034 36.9718 32.7932 36.9718C30.5523 36.9718 28.7358 35.101 28.7358 32.7933C28.7358 30.4856 30.5523 28.6148 32.7932 28.6148C35.034 28.6148 36.8505 30.4856 36.8505 32.7933Z" fill="black"/>
<path d="M32.2481 29.7654C32.2481 30.7353 31.4619 31.5216 30.492 31.5216C29.5221 31.5216 28.7358 30.7353 28.7358 29.7654C28.7358 28.7955 29.5221 28.0093 30.492 28.0093C31.4619 28.0093 32.2481 28.7955 32.2481 29.7654Z" fill="white"/>
<path d="M35.7598 36.7296C35.7598 37.1978 35.3803 37.5774 34.912 37.5774C34.4438 37.5774 34.0642 37.1978 34.0642 36.7296C34.0642 36.2614 34.4438 35.8818 34.912 35.8818C35.3803 35.8818 35.7598 36.2614 35.7598 36.7296Z" fill="white"/>
</svg>
