<svg width="41" height="41" viewBox="0 0 41 41" fill="none" xmlns="http://www.w3.org/2000/svg">
<path d="M7.41667 10H14.25L17.6667 18.5417L13.3958 21.1042C15.2254 24.8139 18.2278 27.8163 21.9375 29.6458L24.5 25.375L33.0417 28.7917V35.625C33.0417 36.5312 32.6817 37.4002 32.0409 38.0409C31.4002 38.6817 30.5312 39.0417 29.625 39.0417C22.9612 38.6367 16.6761 35.8069 11.9554 31.0863C7.23474 26.3656 4.40496 20.0804 4 13.4167C4 12.5105 4.35997 11.6415 5.00072 11.0007C5.64147 10.36 6.51051 10 7.41667 10Z" fill="#00ADB5"/>
<g clip-path="url(#clip0_202_3085)">
<path d="M8.54167 6.8335H15.375L18.7917 15.3752L14.5208 17.9377C16.3504 21.6474 19.3528 24.6498 23.0625 26.4793L25.625 22.2085L34.1667 25.6252V32.4585C34.1667 33.3647 33.8067 34.2337 33.1659 34.8744C32.5252 35.5152 31.6562 35.8752 30.75 35.8752C24.0862 35.4702 17.8011 32.6404 13.0804 27.9197C8.35974 23.1991 5.52996 16.9139 5.125 10.2502C5.125 9.34401 5.48497 8.47496 6.12572 7.83421C6.76647 7.19347 7.63551 6.8335 8.54167 6.8335" stroke="#393E46" stroke-width="2" stroke-linecap="round" stroke-linejoin="round"/>
<path d="M25.625 11.9585C26.5312 11.9585 27.4002 12.3185 28.0409 12.9592C28.6817 13.6 29.0417 14.469 29.0417 15.3752" stroke="#393E46" stroke-width="2" stroke-linecap="round" stroke-linejoin="round"/>
<path d="M25.625 5.125C28.3435 5.125 30.9506 6.20491 32.8728 8.12716C34.7951 10.0494 35.875 12.6565 35.875 15.375" stroke="#393E46" stroke-width="2" stroke-linecap="round" stroke-linejoin="round"/>
</g>
<defs>
<clipPath id="clip0_202_3085">
<rect width="41" height="41" fill="white"/>
</clipPath>
</defs>
</svg>
