<svg width="100" height="102" viewBox="0 0 100 102" fill="none" xmlns="http://www.w3.org/2000/svg">
<path fill-rule="evenodd" clip-rule="evenodd" d="M67.3358 14.6104L6.82129 40.5985L29.5142 95.3351L88.8131 69.347L67.3358 14.6104Z" fill="#2A2941"/>
<path fill-rule="evenodd" clip-rule="evenodd" d="M91.6498 70.4912L68.5516 11.8496L4.05225 39.5209L28.3661 98.1625L91.6498 70.4912ZM66.1877 17.3031L86.2467 68.1348L30.6624 92.4397L9.59041 41.6753L66.2553 17.5724V17.3031H66.1877Z" fill="#2A2941"/>
<path fill-rule="evenodd" clip-rule="evenodd" d="M61.0547 60.4594C66.9981 70.3564 76.7236 76.7524 84.3555 76.2138C90.9067 75.7425 94.4863 65.3742 89.556 60.6614C84.6932 55.9485 73.3467 56.5544 61.0547 60.4594Z" fill="#2A2941"/>
<path fill-rule="evenodd" clip-rule="evenodd" d="M59.5689 55.7465L53.6255 57.699L56.9349 63.0851C64.094 74.7327 75.7781 81.8693 84.8283 81.2634C87.4623 80.9941 89.8937 79.9168 91.9198 78.1663C93.946 76.4832 95.3643 74.1941 96.1072 71.6356C97.0528 69.1446 97.2554 66.5188 96.7151 63.9604C96.1748 61.402 94.9591 59.0455 93.1355 57.0931C89.8937 54.3327 85.9089 52.7842 81.654 52.6495C74.2247 52.2455 66.728 53.2554 59.6364 55.6119L59.5689 55.7465ZM61.0547 60.4594C66.9981 70.3564 76.7237 76.7525 84.3555 76.2139C90.9068 75.7426 94.4863 65.3743 89.556 60.6614C84.6932 55.9485 73.3467 56.5545 61.0547 60.4594Z" fill="#2A2941"/>
<path fill-rule="evenodd" clip-rule="evenodd" d="M81.6537 63.3541C82.059 63.4214 82.4642 63.6234 82.8019 63.8927C83.1396 64.162 83.4097 64.4313 83.6123 64.7679C83.815 65.1046 83.95 65.5085 84.0176 65.9125C84.0851 66.3164 84.0851 66.7204 83.95 67.1244C83.815 67.7303 83.4773 68.2689 83.0045 68.7402C82.5317 69.1442 81.9914 69.4135 81.316 69.5481C80.7082 69.6155 80.0328 69.5481 79.4925 69.2788C78.9522 69.0095 78.4119 68.6056 78.1417 68.0669C77.804 67.5283 77.6689 66.9224 77.6689 66.3165C77.6689 65.7105 77.9391 65.1046 78.2768 64.566C78.682 64.0947 79.1548 63.6907 79.7626 63.4887C80.438 63.2194 81.0459 63.2194 81.6537 63.3541Z" fill="#2A2941"/>
<path d="M79.4249 65.6438L60.3115 60.123" stroke="#2A2941" stroke-width="1.1443" stroke-miterlimit="1.32" stroke-linecap="square"/>
<path fill-rule="evenodd" clip-rule="evenodd" d="M8.98237 35.751L2.22852 38.5114L4.9976 45.3114L11.7515 42.551L8.98237 35.751Z" fill="#2A2941"/>
<path fill-rule="evenodd" clip-rule="evenodd" d="M13.9805 43.4254L9.92817 33.5957L0 37.6353L4.05231 47.5323L13.9805 43.4254ZM8.98263 35.7502L2.22877 38.5106L4.99785 45.3106L11.7517 42.5502L8.98263 35.7502Z" fill="#2A2941"/>
<path fill-rule="evenodd" clip-rule="evenodd" d="M31.608 90.3525L24.7866 93.1129L27.5557 99.9129L34.3096 97.1525L31.608 90.3525Z" fill="#2A2941"/>
<path fill-rule="evenodd" clip-rule="evenodd" d="M36.5386 97.9603L32.4863 88.0632L22.7607 92.1028L26.8131 102L36.5386 97.9603ZM31.6083 90.3523L24.7869 93.1127L27.556 99.8454L34.3098 97.085L31.6083 90.3523Z" fill="#2A2941"/>
<path fill-rule="evenodd" clip-rule="evenodd" d="M69.1596 9.7627L62.4058 12.5231L65.1748 19.2558L71.9962 16.4954L69.1596 9.7627Z" fill="#FF9518"/>
<path fill-rule="evenodd" clip-rule="evenodd" d="M74.1576 17.5727L70.1728 7.54102L60.2446 11.6479L64.2969 21.545L74.1576 17.5727ZM69.1597 9.89745L62.4059 12.6578L65.1749 19.3905L71.9963 16.6301L69.1597 9.89745Z" fill="#2A2941"/>
<path fill-rule="evenodd" clip-rule="evenodd" d="M69.5644 7.06934L9.0498 33.0575L31.6077 87.7941L91.0416 61.806L69.4293 7.06934H69.5644Z" fill="white" stroke="#2A2941" stroke-width="2.8507" stroke-miterlimit="10" stroke-linecap="square"/>
<path fill-rule="evenodd" clip-rule="evenodd" d="M39.5105 38.8475L55.5171 31.9128L71.051 42.0792L58.4213 64.297L35.5933 55.6119L39.5105 38.8475Z" fill="#00ADB5"/>
<path fill-rule="evenodd" clip-rule="evenodd" d="M55.7197 29.5564L37.6869 37.3663L33.0942 56.8911L59.2992 66.8554L73.82 41.4059L55.7197 29.5564ZM41.2664 40.3287L55.3144 34.2019L68.2818 42.6851L57.4757 61.6712L38.0246 54.3326L41.2664 40.3287Z" fill="#2A2941"/>
<path fill-rule="evenodd" clip-rule="evenodd" d="M63.2832 53.0531C69.2266 62.9501 78.8846 69.3461 86.584 68.8075C93.1353 68.3362 96.7148 57.9679 91.7169 53.255C86.8542 48.5422 75.5752 49.0135 63.2832 53.0531Z" fill="#FF9518"/>
<path fill-rule="evenodd" clip-rule="evenodd" d="M61.7974 48.206L55.854 50.1584L59.1634 55.5446C66.39 67.1921 78.0067 74.3287 87.0568 73.7228C89.6908 73.3862 92.1222 72.3089 94.1484 70.6258C96.1745 68.9426 97.5928 66.6535 98.3358 64.1624C99.2813 61.6713 99.4839 59.0456 98.9436 56.4872C98.4033 53.9287 97.1876 51.5723 95.3641 49.6198C92.1222 46.8594 88.0699 45.3109 83.8825 45.1763C76.4533 44.8396 68.9565 45.8495 61.9325 48.2733H61.7974V48.206ZM63.2832 52.9188C69.2266 62.8159 78.9522 69.2119 86.5841 68.6733C93.1353 68.202 96.7148 57.8337 91.717 53.1208C86.7867 48.4079 75.5077 49.0139 63.2157 53.0535V52.9188H63.2832Z" fill="#2A2941"/>
<path fill-rule="evenodd" clip-rule="evenodd" d="M83.8832 55.814C84.2884 55.8813 84.6937 56.0833 85.0314 56.3526C85.3691 56.6219 85.6392 56.8912 85.8418 57.2278C86.0444 57.5645 86.1795 57.9684 86.2471 58.3724C86.3146 58.7764 86.3146 59.1803 86.1795 59.5843C86.0444 60.1902 85.7068 60.7288 85.234 61.2001C84.7612 61.6041 84.2209 61.8734 83.5455 62.008C82.9377 62.0754 82.2623 62.008 81.722 61.7387C81.1817 61.4694 80.6414 61.0655 80.3712 60.5268C80.0335 59.9882 79.8984 59.3823 79.8984 58.7763C79.8984 58.1704 80.1686 57.5645 80.5063 57.0259C80.9115 56.5546 81.3843 56.1506 81.9921 55.9486C82.6 55.6793 83.2754 55.612 83.8832 55.814Z" fill="#2A2941"/>
<path fill-rule="evenodd" clip-rule="evenodd" d="M82.6671 57.4296L61.9327 51.5049L61.46 53.1207L82.1943 59.0455L82.6671 57.4296Z" fill="#2A2941"/>
<path fill-rule="evenodd" clip-rule="evenodd" d="M11.211 28.21L4.38965 30.9704L7.15873 37.7704L13.9126 35.01L11.211 28.21Z" fill="#FF9518"/>
<path fill-rule="evenodd" clip-rule="evenodd" d="M16.209 35.8177L12.1567 25.988L2.22852 30.0276L6.28083 39.9247L16.209 35.8177ZM11.2111 28.1425L4.38975 30.9029L7.15883 37.7029L13.9127 34.9425L11.2111 28.1425Z" fill="#2A2941"/>
<path fill-rule="evenodd" clip-rule="evenodd" d="M33.7691 82.7441L26.9478 85.5045L29.7168 92.2372L36.4707 89.4768L33.7691 82.7441Z" fill="#FF9518"/>
<path fill-rule="evenodd" clip-rule="evenodd" d="M38.6994 90.4195L34.5795 80.5225L24.6514 84.5621L28.7037 94.3918L38.6994 90.4195ZM33.7691 82.7442L26.9477 85.5046L29.7168 92.2373L36.4706 89.4769L33.7691 82.7442Z" fill="#2A2941"/>
<path fill-rule="evenodd" clip-rule="evenodd" d="M71.3886 2.15454L64.6348 4.91494L67.4039 11.6476L74.2253 8.88721L71.3886 2.15454Z" fill="#FF9518"/>
<path fill-rule="evenodd" clip-rule="evenodd" d="M76.3862 9.8297L72.3339 0L62.4058 4.0396L66.4581 13.8693L76.3862 9.8297ZM71.3884 2.15446L64.6345 4.91485L67.4036 11.6475L74.1575 8.88713L71.3884 2.15446Z" fill="#2A2941"/>
</svg>
