<svg width="76" height="86" viewBox="0 0 76 86" fill="none" xmlns="http://www.w3.org/2000/svg">
<path fill-rule="evenodd" clip-rule="evenodd" d="M67.1966 3.13685C75.3127 16.3872 53.0248 48.5003 32.3348 53.3531C29.265 54.0705 29.265 53.9014 32.461 50.1458C42.6378 38.077 47.558 26.5992 44.7825 21.4087C41.2921 14.9524 31.662 15.1212 25.3962 21.7042C15.0512 32.5914 12.2337 45.3773 18.5836 52.4667L20.0976 54.1546L17.0277 56.982C9.12181 64.2402 -2.35861 70.2746 -8.45625 70.2746H-9.84401C-0.129841 58.6278 17.28 36.2202 3.73903 29.384C-12.9979 20.9443 -33.8981 55.2939 -20.4413 69.0506L-18.5489 70.992C-18.5909 71.0342 -40.7947 89.6015 -47.6493 79.9802C-51.6864 74.3256 -49.4997 61.2439 -42.8553 50.9053L-41.5517 48.8798C-41.2153 48.3312 -41.3414 47.6561 -41.846 47.2764C-46.7662 43.8161 -56.5224 63.565 -54.7983 73.4394C-52.1069 88.9263 -34.1083 90.319 -16.6144 76.3513L-13.2923 73.7349L-10.9794 74.1569C-1.18114 75.9714 12.444 70.4435 23.0413 60.3159C26.1111 57.362 26.2373 57.3197 27.6671 57.6995C49.9129 63.7339 86.2884 20.396 73.2521 3.26337C71.1074 0.520463 63.7903 -2.39115 67.1966 3.13685ZM39.0633 21.8307C39.61 27.4009 34.8159 36.769 26.3213 46.9389C23.0412 50.8633 22.873 50.9056 22.1581 47.8673C20.2657 39.8918 29.0127 23.8985 36.8345 21.0712C38.9371 20.3117 38.8951 20.3116 39.0633 21.8307ZM2.39336 32.9709C4.74831 39.1319 -4.62946 57.6152 -14.9744 67.2786L-16.0257 68.2491L-17.2452 65.8017C-20.0207 60.1049 -18.8012 51.285 -14.2174 44.3645C-8.79265 36.1358 1.04768 29.384 2.39336 32.9709Z" fill="#00ADB5"/>
</svg>
