<svg width="55" height="90" viewBox="0 0 55 90" fill="none" xmlns="http://www.w3.org/2000/svg">
<path d="M49.9327 1.00013C50.0269 16.0629 46.4902 32.7661 37.6998 45.2072C35.3094 48.5903 23.7402 65.1116 18.2278 59.5992C15.5876 56.9591 18.9789 54.506 21.3466 53.791C26.0074 52.3833 29.8319 51.6855 34.8125 52.4275C42.5003 53.5727 53.2245 57.1046 53.0147 66.4982C52.9242 70.5523 47.8318 73.3901 44.4491 73.8685C41.1326 74.3376 38.0459 73.7699 34.7575 73.3254C32.0848 72.9641 32.5491 72.8078 33.3599 75.3954C35.395 81.89 31.2948 91.9822 23.4073 86.5432C18.9819 83.4916 16.9515 79.0303 14.6458 74.4618C13.7798 72.7457 12.1944 69.8424 12.0808 67.9127C11.9571 65.8117 14.2664 67.0499 14.8674 68.3384C16.3615 71.5419 16.2205 73.7089 13.7287 76.2006C11.4752 78.4542 6.71096 79.6696 3.97264 77.2161C2.45339 75.8549 2.44599 76.567 3.05041 78.1384C3.51932 79.3574 5.66838 82.6008 4.74289 81.6753C4.41683 81.3492 1.73551 78.6322 1.86255 78.1309C2.3148 76.3463 3.82136 74.8151 4.61576 73.2112" stroke="#FF9518" stroke-width="2" stroke-linecap="round"/>
</svg>
