<svg width="94" height="98" viewBox="0 0 94 98" fill="none" xmlns="http://www.w3.org/2000/svg">
<path fill-rule="evenodd" clip-rule="evenodd" d="M16.3827 62.422C8.43204 58.1827 5.35041 47.7994 5.65857 38.092C23.1623 32.1938 38.7553 23.7152 50.7737 8.96973C63.2851 20.5203 68.4623 32.9311 68.9553 53.6362C47.3223 50.7485 30.9896 55.9094 16.3827 62.422Z" fill="#2A2941"/>
<path fill-rule="evenodd" clip-rule="evenodd" d="M6.52145 46.6328C6.52145 46.6328 -2.23039 49.8891 0.543082 56.4017C3.31655 62.9142 11.6986 58.2449 11.6986 58.2449C9.17166 54.8042 7.38431 50.8107 6.52145 46.6328Z" fill="#2A2941"/>
<path fill-rule="evenodd" clip-rule="evenodd" d="M24.7031 58.7971C29.079 66.7842 31.9141 75.5086 33.0852 84.4788L48.6782 77.4747C44.1174 70.3477 40.4811 62.7292 37.8925 54.6807C33.3933 55.7251 28.9558 57.1382 24.7031 58.7971Z" fill="#2A2941"/>
<path fill-rule="evenodd" clip-rule="evenodd" d="M52.6836 13.4551C52.6836 13.4551 69.5709 6.69675 75.3028 21.0121C80.6648 34.4674 64.3938 42.0244 64.3938 42.0244C63.0995 36.6177 58.4154 20.5206 52.6836 13.4551Z" fill="#FF9518"/>
<path fill-rule="evenodd" clip-rule="evenodd" d="M52.006 11.7964L49.7256 12.718L51.2664 14.6226C56.875 21.5038 61.3742 37.1709 62.6068 42.4547L63.0999 44.605L65.1338 43.6835C68.0921 42.2089 70.804 40.2429 73.146 37.8467C75.488 35.6963 77.0905 32.8087 77.7685 29.7367C78.4464 26.6033 78.1383 23.347 76.9672 20.3979C75.8578 17.326 73.824 14.6226 71.1121 12.7795C68.4003 10.9363 65.1954 10.0147 61.8672 10.0761C58.5391 10.0761 55.2109 10.6291 52.006 11.7964ZM55.6423 14.3769C57.6762 13.8854 59.7717 13.6396 61.8056 13.6396C64.3942 13.5167 66.9211 14.254 69.0166 15.7285C71.1121 17.1416 72.7762 19.2306 73.6391 21.6267C74.5636 23.9614 74.8101 26.4804 74.2554 28.938C73.7007 31.3956 72.4064 33.6074 70.5574 35.2663C69.0782 36.8023 67.4142 38.1539 65.5652 39.2598C63.408 30.5969 60.0182 22.1797 55.6423 14.3769Z" fill="#2A2941"/>
<path fill-rule="evenodd" clip-rule="evenodd" d="M19.5252 56.0939C11.5746 51.8545 8.49298 41.4713 8.80115 31.7639C26.3048 25.8657 41.8979 17.3871 53.9163 2.6416C66.4277 14.1922 71.6049 26.603 72.0979 47.308C50.4648 44.4818 34.1322 49.6427 19.5252 56.0939Z" fill="#00ADB5"/>
<path fill-rule="evenodd" clip-rule="evenodd" d="M18.664 57.6916L19.4652 58.1217L20.2665 57.753C34.6269 51.3633 50.6514 46.2639 71.853 49.0901L73.9485 49.3358V47.2469C73.4555 25.9274 68.0934 13.148 55.2122 1.29023L53.7946 0L52.562 1.47455C40.7285 15.9742 25.4436 24.2686 8.24809 30.0439L7.07707 30.4739V31.7027C6.70727 42.1474 10.2203 53.1451 18.7873 57.6916H18.664ZM19.6501 54.0667C13.1171 50.0731 10.5285 41.4101 10.5901 33.0544C27.2926 27.2791 42.2693 19.0462 54.0412 5.28379C64.7653 15.7285 69.511 27.1562 70.1889 45.2808C49.542 43.0076 33.8257 47.8613 19.6501 54.0667Z" fill="#2A2941"/>
<path fill-rule="evenodd" clip-rule="evenodd" d="M9.35679 40.4268C9.35679 40.4268 0.543313 43.683 3.37842 50.1956C6.15189 56.7082 14.5339 52.0388 14.5339 52.0388C12.007 48.5982 10.2196 44.6046 9.35679 40.4268Z" fill="#FF9518"/>
<path fill-rule="evenodd" clip-rule="evenodd" d="M11.1444 40.0584L10.7746 37.9695L8.74076 38.7068C7.07668 39.3826 5.53586 40.3042 4.17994 41.4715C2.76239 42.516 1.77626 44.052 1.34483 45.7108C0.913406 47.4311 1.03667 49.2129 1.77626 50.8103C2.26932 52.162 3.19382 53.2679 4.42647 54.0666C5.59749 54.8653 7.01504 55.2339 8.43259 55.2339C10.8363 55.1725 13.2399 54.6196 15.3971 53.5751L17.3077 52.6535L16.0134 50.9332C13.6097 47.6769 11.9457 43.9905 11.1444 40.0584ZM8.12443 43.0075C8.98729 45.8337 10.1583 48.5985 11.7608 51.1175C11.0828 51.3633 10.4048 51.4861 9.72688 51.609C8.80239 51.8548 7.81627 51.7933 7.01504 51.3633C6.15218 50.9946 5.47423 50.3188 5.0428 49.4586C4.673 48.5371 4.61137 47.554 4.91953 46.6324C5.16606 45.7108 5.78239 44.9121 6.52198 44.2977C7.01504 43.8677 7.56974 43.4376 8.12443 43.1304V43.0075Z" fill="#2A2941"/>
<path fill-rule="evenodd" clip-rule="evenodd" d="M28.094 52.7151C32.4699 60.7022 35.3666 69.4266 36.476 78.3967L51.9458 71.3926C47.385 64.3271 43.7487 56.6472 41.1601 48.5986C36.6609 49.6431 32.285 50.9948 27.9707 52.7151H28.094Z" fill="white"/>
<path fill-rule="evenodd" clip-rule="evenodd" d="M27.4759 51.056L25.627 51.7933L26.4898 53.5136C30.8041 61.255 33.5776 69.7336 34.687 78.458L34.9335 81.0384L54.7792 72.1297L53.6698 70.4094C49.1706 63.4668 45.5959 55.9097 43.069 48.0455L42.5759 46.5095L40.9735 46.8782C36.351 47.9226 31.8519 49.3357 27.4759 51.056ZM30.6192 53.6365C33.7625 52.4691 36.9057 51.4861 40.1106 50.6874C42.4527 57.6301 45.5959 64.3269 49.4172 70.5323L37.9535 75.6932C36.7208 68.0133 34.1939 60.5791 30.6192 53.6365Z" fill="#2A2941"/>
<path fill-rule="evenodd" clip-rule="evenodd" d="M13.1152 29.9827C13.3618 39.0143 16.7516 47.6773 22.7299 54.4971C23.0997 54.8657 23.5312 55.05 24.0242 55.05C24.5173 55.05 24.9487 54.8657 25.3185 54.4971C25.6883 54.1284 25.8732 53.6983 25.8732 53.2068C25.8732 52.7153 25.6883 52.2852 25.3185 51.9166C19.9565 45.8341 16.9365 38.0313 16.7516 29.9213C16.7516 29.4298 16.5667 28.9997 16.1969 28.6311C15.8887 28.3239 15.3956 28.0781 14.9026 28.0781C14.4095 28.0781 13.9781 28.2624 13.6083 28.6311C13.3001 28.9997 13.1152 29.4298 13.1152 29.9827Z" fill="#2A2941"/>
<path fill-rule="evenodd" clip-rule="evenodd" d="M66.7992 92.0976L59.4033 74.0959L63.656 72.0684L62.1152 68.1977C70.6205 67.4604 87.138 66.2931 89.2952 71.1468C91.4523 76.0005 81.5295 89.8858 75.058 97.1356L70.8054 90.193L66.7992 92.0976Z" fill="#2A2941"/>
<path fill-rule="evenodd" clip-rule="evenodd" d="M52.0064 81.3454C55.6428 78.3963 59.7722 76.0002 64.2097 74.4027L65.8738 73.7883L64.5795 70.4092L62.9154 71.085C58.1081 72.8667 53.6705 75.3858 49.726 78.6421L48.3701 79.8094L50.6505 82.5742L52.0064 81.3454Z" fill="#2A2941"/>
<path fill-rule="evenodd" clip-rule="evenodd" d="M55.0278 85.4626C58.4176 83.0664 62.1772 81.2232 66.0601 79.933L67.7242 79.3186L66.4915 75.9395L64.8274 76.5538C60.5748 77.967 56.507 79.9944 52.8707 82.5749L51.4531 83.6194L53.5486 86.507L55.0278 85.4626Z" fill="#2A2941"/>
<path fill-rule="evenodd" clip-rule="evenodd" d="M57.7376 89.8243C61.0041 87.9811 64.5172 86.5065 68.1535 85.4621L69.8792 84.9091L68.7698 81.4685L67.0441 82.0215C63.0996 83.1274 59.34 84.7248 55.8269 86.7523L54.2861 87.6739L56.1967 90.7458L57.7376 89.8243Z" fill="#2A2941"/>
<path fill-rule="evenodd" clip-rule="evenodd" d="M69.3881 86.7525L61.9922 68.7507L66.2448 66.6618L63.6563 59.7806C72.1616 59.0433 89.6653 60.4564 92.0073 65.7402C94.3493 71.024 83.8718 84.4792 77.3387 91.6676L73.5175 84.7864L69.4497 86.6296L69.3881 86.7525Z" fill="white"/>
<path fill-rule="evenodd" clip-rule="evenodd" d="M59.71 67.9519L68.4618 89.21L72.7145 87.2439L76.9671 94.9853L78.6312 93.0806C84.1781 87.121 88.9239 80.4856 92.6834 73.2357C94.0394 70.7781 94.3475 67.9519 93.6079 65.2486C92.8683 64.0813 91.9439 63.0368 90.8345 62.1766C89.7251 61.3779 88.4308 60.7635 87.0749 60.4563C79.4324 58.3674 71.4818 57.5687 63.5312 58.1831L61.1275 58.4288L64.0242 65.9859L59.71 68.0748V67.9519ZM70.3724 84.3562L64.3324 69.7337L68.5851 67.7062L66.243 61.5622C72.8994 61.255 79.4941 62.0538 85.9039 63.8355C87.0132 64.2041 88.061 64.6342 89.0471 65.2486C89.6018 65.5558 90.0332 66.0473 90.3414 66.6003C90.6496 67.5219 90.6496 68.5663 90.3414 69.4879C89.8483 71.2082 89.1087 72.8056 88.2459 74.3416C85.2875 79.4411 81.8361 84.2334 77.9532 88.657L74.3785 82.5745L70.3724 84.3562Z" fill="#2A2941"/>
<path fill-rule="evenodd" clip-rule="evenodd" d="M74.6264 69.9795C75.7357 69.9795 76.7835 70.4096 77.5231 71.1468C78.2627 71.8841 78.6941 72.9286 78.6941 74.0345C78.6941 75.1404 78.2627 76.1849 77.5231 76.9221C76.7835 77.6594 75.7357 78.0895 74.6264 78.0895C73.517 78.0895 72.4692 77.6594 71.7296 76.9221C70.99 76.1849 70.5586 75.1404 70.5586 74.0345C70.5586 72.9286 70.99 71.8841 71.7296 71.1468C72.5308 70.4096 73.5786 69.9795 74.6264 69.9795Z" fill="#FF9518"/>
<path fill-rule="evenodd" clip-rule="evenodd" d="M74.6258 68.1973C73.4548 68.1973 72.2838 68.5045 71.3593 69.1803C70.3732 69.7947 69.6336 70.7163 69.1405 71.8222C68.7091 72.9281 68.5858 74.0954 68.7707 75.2014C69.0172 76.3687 69.5719 77.4132 70.3731 78.2119C71.1744 79.0106 72.2838 79.625 73.3932 79.8093C74.5642 80.0551 75.7352 79.9322 76.8446 79.5021C77.954 79.072 78.8785 78.2733 79.4948 77.3517C80.1727 76.3687 80.4809 75.2628 80.4809 74.0954C80.4809 72.5595 79.8646 71.0849 78.7552 69.979C77.6458 68.8117 76.1666 68.1973 74.6258 68.1973ZM74.6258 71.7608C74.934 71.7608 75.2421 71.8222 75.4887 71.9451C75.7352 72.0679 75.9817 72.2523 76.2283 72.4366C76.4132 72.6209 76.5981 72.8667 76.7213 73.1739C76.8446 73.4196 76.9062 73.7268 76.8446 74.034C76.8446 74.4641 76.7213 74.8942 76.4748 75.2628C76.2283 75.6314 75.8585 75.8772 75.4887 76.0615C75.0572 76.2458 74.6258 76.2458 74.1944 76.1844C73.763 76.1229 73.3932 75.8772 73.085 75.57C72.7768 75.2628 72.5919 74.8942 72.4687 74.4641C72.407 74.034 72.407 73.6039 72.5919 73.1739C72.7768 72.7438 73.0234 72.4366 73.3932 72.1908C73.763 71.9451 74.1944 71.7608 74.6258 71.7608Z" fill="#2A2941"/>
<path fill-rule="evenodd" clip-rule="evenodd" d="M78.7559 62.1764C83.0702 65.5555 85.7821 73.3583 85.9053 78.4578C85.9053 78.9493 86.0902 79.3794 86.46 79.748C86.7682 80.0552 87.2613 80.301 87.7543 80.301C88.2474 80.301 88.6788 80.1167 89.0486 79.748C89.3568 79.4408 89.6033 78.9493 89.6033 78.4578C89.6033 72.4367 86.1519 63.3437 81.098 59.4116C80.9131 59.2887 80.6666 59.1658 80.4817 59.1044C80.2351 59.043 79.9886 59.043 79.7421 59.043C79.4955 59.043 79.249 59.1658 79.0641 59.2887C78.8792 59.4116 78.6943 59.5959 78.5094 59.7802C78.2629 60.1489 78.1396 60.6404 78.2013 61.0705C78.1396 61.5005 78.3861 61.9306 78.7559 62.1764Z" fill="#2A2941"/>
</svg>
