<svg width="22" height="19" viewBox="0 0 22 19" fill="none" xmlns="http://www.w3.org/2000/svg">
<path d="M2.71698 7.49801C2.33962 7.49801 1.98323 7.4313 1.6478 7.2979C1.32075 7.16449 1.03564 6.98008 0.792453 6.74466C0.549266 6.51709 0.356394 6.24636 0.213837 5.93246C0.0712788 5.62642 0 5.29683 0 4.9437V1.60074H1.20755V4.77891C1.20755 4.96724 1.24528 5.14773 1.32075 5.32037C1.39623 5.48517 1.50105 5.62642 1.63522 5.74413C1.76939 5.86969 1.92453 5.96778 2.10063 6.0384C2.28512 6.11688 2.47799 6.15611 2.67925 6.15611H4.91824C5.25367 6.15611 5.53878 6.04625 5.77359 5.82652C6.00839 5.6068 6.12579 5.33607 6.12579 5.01433V1.4124H7.33333V5.21443C7.33333 5.52833 7.26625 5.8226 7.13208 6.09726C7.00629 6.37976 6.83438 6.62303 6.61635 6.82706C6.39832 7.03109 6.13837 7.19196 5.83648 7.30967C5.54298 7.43523 5.22851 7.49801 4.89308 7.49801H2.71698ZM3.00629 0.164673H4.32704V1.40063H3.00629V0.164673Z" fill="#FF9518"/>
<path d="M13.313 15.1913C12.9795 15.1913 12.6699 15.1198 12.3841 14.9769C12.1078 14.834 11.8744 14.6482 11.6839 14.4196C11.4933 14.1814 11.3552 13.9099 11.2694 13.605C11.1932 13.3002 11.1837 12.9858 11.2408 12.6619L11.4838 11.3614C11.5314 11.1137 11.6172 10.8851 11.741 10.6755C11.8744 10.4659 12.0316 10.2849 12.2126 10.1324C12.4031 9.98001 12.6127 9.86092 12.8414 9.77518C13.07 9.68943 13.3082 9.64656 13.5559 9.64656H14.3562C14.6706 9.64656 14.9611 9.70849 15.2279 9.83234C15.5042 9.94666 15.7423 10.1039 15.9424 10.3039C16.1425 10.504 16.2997 10.7422 16.414 11.0184C16.5283 11.2852 16.5855 11.5758 16.5855 11.8902V13.5622H17.6287C17.7621 13.5622 17.8288 13.6288 17.8288 13.7622V14.9912C17.8288 15.1246 17.7621 15.1913 17.6287 15.1913H16.5712V15.377C16.5521 15.6914 16.4807 15.9963 16.3568 16.2916C16.2425 16.587 16.0853 16.8585 15.8853 17.1062C15.6852 17.3539 15.4518 17.5682 15.185 17.7493C14.9183 17.9398 14.6229 18.0922 14.299 18.2066L12.4412 18.8353L12.0125 17.5063L13.9275 16.8775C14.3085 16.7442 14.6134 16.5298 14.842 16.2345C15.0802 15.9391 15.1993 15.5914 15.1993 15.1913V15.0341C15.0945 15.0817 14.9754 15.1198 14.842 15.1484C14.7087 15.177 14.5753 15.1913 14.4419 15.1913H13.313ZM13.1415 13.5622H15.2136V11.8759C15.2136 11.6853 15.1469 11.5281 15.0135 11.4043C14.8897 11.2709 14.7325 11.2042 14.5419 11.2042H13.4702C13.3082 11.2042 13.1653 11.2566 13.0414 11.3614C12.9271 11.4567 12.8509 11.5853 12.8128 11.7473L12.5984 12.8905C12.5603 13.062 12.5984 13.2192 12.7128 13.3621C12.8271 13.4955 12.97 13.5622 13.1415 13.5622Z" fill="#FF9518"/>
<path d="M19.8277 13.5622C20.0469 13.5622 20.2326 13.4859 20.3851 13.3335C20.547 13.1715 20.628 12.9762 20.628 12.7476V9.90379H21.9999V12.7476C21.9999 13.0906 21.9332 13.4097 21.7998 13.7051C21.676 14.0004 21.5045 14.2576 21.2854 14.4767C21.0663 14.6959 20.809 14.8721 20.5137 15.0055C20.2184 15.1293 19.904 15.1913 19.5705 15.1913H17.627C17.5699 15.1913 17.5222 15.1722 17.4841 15.1341C17.446 15.0865 17.4269 15.0388 17.4269 14.9912V13.7765C17.4269 13.7193 17.446 13.6717 17.4841 13.6336C17.5222 13.586 17.5699 13.5622 17.627 13.5622H19.8277ZM18.2558 8.47474H19.7563V6.97424H18.2558V8.47474ZM20.4994 8.47474H21.9999V6.97424H20.4994V8.47474Z" fill="currentColor"/>
<path d="M3.90495 15.0138C3.90495 15.1322 3.84529 15.1913 3.72596 15.1913H3.31684C3.01852 15.1913 2.73725 15.1364 2.47302 15.0265C2.21732 14.9165 1.99145 14.7686 1.79541 14.5825C1.59938 14.388 1.44596 14.164 1.33515 13.9103C1.22435 13.6481 1.16895 13.3691 1.16895 13.0731V6.61707H2.39631V13.0351C2.39631 13.238 2.4645 13.4072 2.60087 13.5424C2.74577 13.6777 2.91624 13.7454 3.11228 13.7454H3.72596C3.7771 13.7454 3.81972 13.7665 3.85381 13.8088C3.8879 13.8426 3.90495 13.8849 3.90495 13.9356V15.0138Z" fill="currentColor"/>
<path d="M6.66203 13.7454H8.51586V12.2487C8.51586 12.0796 8.46046 11.9401 8.34966 11.8301C8.23885 11.7117 8.09822 11.6526 7.92775 11.6526H6.9433C6.7984 11.6526 6.67055 11.6991 6.55975 11.7921C6.45747 11.8766 6.39354 11.9908 6.36797 12.1345L6.16341 13.1492C6.12932 13.3015 6.16341 13.441 6.26569 13.5678C6.36797 13.6862 6.50009 13.7454 6.66203 13.7454ZM4.92326 13.0985L5.17896 11.7921C5.22158 11.5722 5.29829 11.3693 5.40909 11.1833C5.5199 10.9972 5.65627 10.8408 5.81821 10.7139C5.98868 10.5787 6.1762 10.473 6.38076 10.3969C6.58532 10.3208 6.80266 10.2827 7.0328 10.2827H7.74876C8.02151 10.2827 8.27721 10.3334 8.51586 10.4349C8.76304 10.5364 8.97613 10.6759 9.15512 10.8535C9.33411 11.031 9.47474 11.2424 9.57702 11.4877C9.68783 11.7244 9.74323 11.9781 9.74323 12.2487V13.7708C9.74323 14.1766 9.60685 14.5149 9.33411 14.7855C9.06988 15.0561 8.73321 15.1913 8.32409 15.1913H6.81545C6.55122 15.1913 6.30405 15.1322 6.07392 15.0138C5.84378 14.8954 5.64349 14.7009 5.47302 14.4303C5.29403 14.7009 5.08094 14.8954 4.83377 15.0138C4.58659 15.1322 4.32662 15.1913 4.05388 15.1913H3.72146C3.67032 15.1913 3.62771 15.1744 3.59361 15.1406C3.55952 15.0983 3.54247 15.0518 3.54247 15.0011V13.923C3.54247 13.8046 3.60214 13.7454 3.72146 13.7454H4.13059C4.32662 13.7454 4.49709 13.6862 4.64199 13.5678C4.78689 13.4494 4.88064 13.293 4.92326 13.0985Z" fill="currentColor"/>
</svg>
